<?xml version="1.0" ?><svg viewBox="0 0 64 64" xmlns="http://www.w3.org/2000/svg"><defs><style>.cls-1{fill:#0072ff;}</style></defs><title/><g data-name="Layer 2" id="Layer_2"><path class="cls-1" d="M56.27,19.26l-2.69-1.92A3.78,3.78,0,0,1,52,14.26V13A5.07,5.07,0,0,0,46.93,8H41.31a2.69,2.69,0,0,1-1.56-.5L37.17,5.61a8.9,8.9,0,0,0-10.35,0L24.25,7.45a2.69,2.69,0,0,1-1.56.5H17.07A5.07,5.07,0,0,0,12,13v1.23a3.78,3.78,0,0,1-1.58,3.07L7.73,19.26A8.9,8.9,0,0,0,4,26.5V51.06A8.9,8.9,0,0,0,12.9,60H51.1a8.9,8.9,0,0,0,8.9-8.9V26.5A8.9,8.9,0,0,0,56.27,19.26ZM16,52a4,4,0,1,1,4-4A4,4,0,0,1,16,52Zm35,0H47a1,1,0,0,1,0-2h4a1,1,0,0,1,0,2Zm0-4H43a1,1,0,0,1,0-2h8a1,1,0,0,1,0,2Zm4.19-19.79L51.9,30.52l-.15.1L34,43.32a3.39,3.39,0,0,1-3.94,0L12.25,30.62l-.15-.1L8.81,28.17a1.77,1.77,0,1,1,2.13-2.83L12,26.1l2.2,1.57a1.14,1.14,0,0,0,1.8-.93V13A1.07,1.07,0,0,1,17.07,12H46.93A1.07,1.07,0,0,1,48,13V26.74a1.14,1.14,0,0,0,1.8.93L52,26.1l1.05-.75a1.77,1.77,0,1,1,2.13,2.83Z"/><path class="cls-1" d="M32.82,19.94l-.85.85-1-1a4,4,0,0,0-5.8.16,4.15,4.15,0,0,0,.31,5.66L31,31.08a1.44,1.44,0,0,0,2,0l5.64-5.64a4,4,0,0,0-.16-5.8A4.15,4.15,0,0,0,32.82,19.94Z"/></g></svg>